# xmcd
#
# Track frame offsets:
#	150
#	15975
#	38295
#	61695
#	77275
#	98248
#	120130
#	139773
#	157945
#	179550
#
# Disc length: 2665 seconds
#
# Revision: 5
# Processed by: cddbd v1.5.2PL0 Copyright (c) Steve Scherf et al.
# Submitted via: Jack! The Knife
#
DISCID=5f0a670a
DTITLE=White Lion - Fight To Survive
DYEAR=1985
DGENRE=Hard Rock
TTITLE0=Broken Heart
TTITLE1=Cherokee
TTITLE2=Fight To Survive
TTITLE3=Where Do We Run
TTITLE4=In The City
TTITLE5=All The Fallen Men
TTITLE6=All Burn In Hell
TTITLE7=Kid Of 1000 Faces
TTITLE8=El Salvador
TTITLE9=The Road To Valhalla
EXTD=Produced by: Peter Hauke
EXTT0=Tramp - Bratta
EXTT1=Tramp - Bratta
EXTT2=Tramp - Bratta - Capozzi
EXTT3=Tramp - Bratta - Robinson
EXTT4=Tramp - Bratta - Capozzi - Robinson
EXTT5=Tramp - Bratta
EXTT6=Tramp - Bratta - Capozzi
EXTT7=Tramp - Bratta - Capozzi - Robinson
EXTT8=Tramp - Bratta
EXTT9=Tramp - Bratta
PLAYORDER=
